<?xml version="1.0" encoding="UTF-8"?>
<!DOCTYPE svg  PUBLIC '-//W3C//DTD SVG 1.1//EN'  'http://www.w3.org/Graphics/SVG/1.1/DTD/svg11.dtd'>
<svg clip-rule="evenodd" fill-rule="evenodd" stroke-linejoin="round" stroke-miterlimit="1.4142" version="1.1" viewBox="0 0 780 500" xml:space="preserve" xmlns="http://www.w3.org/2000/svg"><path d="m100.79 397.83s-94.562-11.183-95.153-79.908c-0.444-51.448 18.83-70.404 30.601-85.357 6.834-8.679 12.347-8.115 16.852-25.71 0 0 3.939 16.058-5.528 29.101-8.38 11.543-14.127 23.868-5.799 35.643 6.249 8.832 19.353 12.325 30.896 2.62 15.03-12.633 27.235-35.291-12.106-87.494-39.338-52.205-23.946-84.833-5.987-107.21 17.958-22.372 41.934-42.757 28.054-69.927 0 0 14.595 17.136 15.562 35.436 2.427 45.951-27.013 55.985-11.488 82.505 3.182 5.429 11.839 11.102 19.708 10.911 8.204-0.197 24.272-7.832 13.776-41.324 0 0 30.755 24.663 38.506 45.273 10.077 26.797 11.861 74.851-46.8 131.18-30.718 29.498-86.992 78.519-11.094 124.25z" fill="#ed1e24"/><path d="m118.27 300.08s6.474-4.973 40.219-25.063c46.108-27.45 23.887-81.088 23.887-81.088s35.831 55.473 12.135 81.048c-5.301 5.722-17.986 8.263-31.39 10.779-35.165 6.603-44.851 14.324-44.851 14.324z" fill="#ed1e24"/><path d="m166.97 347.93h-28.577v13.827h13.212c-1.077 9.287-6.068 12.176-14.485 12.176-10.668 0-15.365-9.184-15.365-21.773 0-13.105 5.089-21.772 14.68-21.772 6.068 0 9.298 2.786 11.842 8.358h16.638c-2.251-15.788-14.974-23.63-28.871-23.63-18.889 0-31.906 13.311-31.906 37.044 0 23.631 12.723 37.045 32.982 37.045 21.434 0 29.85-12.486 29.85-36.219v-5.056z" fill-rule="nonzero"/><path d="m192.61 373v-56.961h-16.736v72.232h46.978v-15.271h-30.242z" fill-rule="nonzero"/><path d="m259.74 315.11c-20.161 0-32.982 13.93-32.982 37.044 0 22.908 12.821 37.045 32.982 37.045 20.063 0 32.982-14.137 32.982-37.045 0-23.114-12.919-37.044-32.982-37.044zm0 58.817c-10.081 0-15.366-8.771-15.366-21.773 0-13.208 5.285-21.772 15.366-21.772 10.08 0 15.365 8.564 15.365 21.772 0 13.002-5.285 21.773-15.365 21.773z" fill-rule="nonzero"/><path d="m345.57 348.55c4.013-2.167 8.025-7.017 8.025-13.518 0-11.351-7.829-18.987-23.39-18.987h-28.97v72.232h30.242c18.204 0 26.718-8.255 26.718-21.772 0-7.636-4.893-15.479-12.625-17.955zm-27.599-17.955h12.332c2.153 0 5.676 1.341 5.676 6.191 0 3.509-1.957 7.017-6.166 7.017h-11.842v-13.208zm12.821 43.133h-12.821v-16.614h13.604c7.242 0 8.514 5.16 8.514 8.668 0 4.025-2.348 7.946-9.297 7.946z" fill-rule="nonzero"/><path d="m411.72 388.27h18.106l-26.327-72.232h-15.072l-26.229 72.232h18.106l3.719-12.073h23.88l3.817 12.073zm-23.586-25.074 7.829-25.385 7.928 25.385h-15.757z" fill-rule="nonzero"/><path d="m453.61 373v-56.961h-16.735v72.232h46.977v-15.271h-30.242z" fill-rule="nonzero"/><path d="m151.31 434.5v-15.272h-45.705v72.232h16.736v-28.48h23.978v-14.137h-23.978v-14.343h28.969z" fill-rule="nonzero"/><rect x="159.24" y="419.23" width="16.736" height="72.232" fill-rule="nonzero"/><path d="m243.63 479.39v-5.263c0-7.017-2.447-11.763-9.787-15.891 4.208-3.302 9.004-7.739 9.004-16.923 0-12.176-7.634-22.082-26.132-22.082h-30.241v72.232h16.736v-25.281h14.974c5.676 0 8.71 3.818 8.71 8.564v4.644c0 5.882 0.294 8.668 1.957 12.073h16.736c-1.566-3.405-1.957-6.191-1.957-12.073zm-27.893-27.139h-12.527v-17.645h13.114c5.676 0 9.2 2.58 9.2 8.255 0 6.294-2.153 9.39-9.787 9.39z" fill-rule="nonzero"/><path d="m269.86 476.19v-14.137h27.404v-14.137h-27.404v-13.414h32.297v-15.272h-49.032v72.232h50.011v-15.272h-33.276z" fill-rule="nonzero"/><path d="m368.02 451.01-9.689-2.064c-7.34-1.548-10.178-5.366-10.178-10.422 0-5.263 3.915-11.144 13.702-11.144 9.199 0 13.603 4.643 14.582 11.041h10.668c-1.37-12.589-10.374-20.122-25.25-20.122-15.464 0-24.272 8.462-24.272 19.915 0 11.764 7.536 17.13 18.987 19.503l9.591 1.961c7.242 1.548 12.038 4.334 12.038 11.66 0 6.707-5.383 11.867-15.464 11.867-10.667 0-14.778-6.295-15.952-13.621h-10.668c1.077 13.827 10.178 22.805 26.523 22.805 15.659 0 26.326-7.843 26.326-21.051 0-12.176-7.144-17.439-20.944-20.328z" fill-rule="nonzero"/><path d="m408.64 481.97v-23.012h30.437v-8.874h-30.437v-21.36h35.331v-9.493h-45.607v72.232h46.586v-9.493h-36.31z" fill-rule="nonzero"/><path d="m505.33 479.39v-5.779c0-8.048-3.034-12.795-10.668-15.581 6.166-3.199 10.472-8.875 10.472-17.852 0-12.383-7.536-20.947-24.076-20.947h-27.697v72.232h10.277v-28.377h20.063c6.263 0 11.353 2.786 11.353 10.835v5.469c0 6.501 0.489 9.7 1.957 12.073h10.276c-1.468-2.373-1.957-5.572-1.957-12.073zm-23.685-25.075h-18.007v-25.591h17.225c9.004 0 13.701 4.128 13.701 12.486 0 8.565-4.6 13.105-12.919 13.105z" fill-rule="nonzero"/><path d="m562.38 419.23-20.552 58.405-20.455-58.405h-11.059l27.012 72.232h9.101l27.012-72.232h-11.059z" fill-rule="nonzero"/><rect x="580.98" y="419.23" width="10.276" height="72.232" fill-rule="nonzero"/><path d="m631.58 482.9c-12.136 0-20.064-9.596-20.064-27.551 0-18.058 7.928-27.552 20.064-27.552 8.906 0 13.799 4.128 16.344 11.248h10.374c-2.251-13.518-13.31-20.741-26.914-20.741-17.812 0-30.633 12.589-30.633 37.045s12.821 37.045 30.633 37.045c13.702 0 24.859-7.224 27.11-20.845h-10.374c-2.545 7.224-7.536 11.351-16.54 11.351z" fill-rule="nonzero"/><path d="m677.18 481.97v-23.012h30.437v-8.874h-30.437v-21.36h35.33v-9.493h-45.607v72.232h46.586v-9.493h-36.309z" fill-rule="nonzero"/><path d="m752.34 451.01-9.689-2.064c-7.34-1.548-10.178-5.366-10.178-10.422 0-5.263 3.915-11.144 13.702-11.144 9.199 0 13.603 4.643 14.582 11.041h10.668c-1.37-12.589-10.374-20.122-25.25-20.122-15.464 0-24.272 8.462-24.272 19.915 0 11.764 7.536 17.13 18.987 19.503l9.591 1.961c7.242 1.548 12.038 4.334 12.038 11.66 0 6.707-5.383 11.867-15.464 11.867-10.667 0-14.778-6.295-15.952-13.621h-10.668c1.076 13.827 10.178 22.805 26.522 22.805 15.66 0 26.327-7.843 26.327-21.051 0-12.176-7.144-17.439-20.944-20.328z" fill-rule="nonzero"/><path d="m100.79 397.83s-94.562-11.183-95.153-79.908c-0.444-51.448 18.83-70.404 30.601-85.357 6.834-8.679 12.347-8.115 16.852-25.71 0 0 3.939 16.058-5.528 29.101-8.38 11.543-14.127 23.868-5.799 35.643 6.249 8.832 19.353 12.325 30.896 2.62 15.03-12.633 27.235-35.291-12.106-87.494-39.338-52.205-23.946-84.833-5.987-107.21 17.958-22.372 41.934-42.757 28.054-69.927 0 0 14.595 17.136 15.562 35.436 2.427 45.951-27.013 55.985-11.488 82.505 3.182 5.429 11.839 11.102 19.708 10.911 8.204-0.197 24.272-7.832 13.776-41.324 0 0 30.755 24.663 38.506 45.273 10.077 26.797 11.861 74.851-46.8 131.18-30.718 29.498-86.992 78.519-11.094 124.25z" fill="#ed1e24"/><path d="m118.27 300.08s6.474-4.973 40.219-25.063c46.108-27.45 23.887-81.088 23.887-81.088s35.831 55.473 12.135 81.048c-5.301 5.722-17.986 8.263-31.39 10.779-35.165 6.603-44.851 14.324-44.851 14.324z" fill="#ed1e24"/></svg>
